<?xml version="1.0" encoding="utf-8"?>
<svg xmlns="http://www.w3.org/2000/svg" xmlns:xlink="http://www.w3.org/1999/xlink" viewBox="0 0 512 512"><defs><style>.a{fill:#f9fafd;}.b{fill:url(#a);}.c{fill:url(#b);}.d{fill:url(#c);}.e{fill:url(#d);}.f{fill:url(#e);}</style><linearGradient id="a" x1="-35.42053" y1="419.26926" x2="150.75434" y2="233.09438" gradientTransform="translate(467.6593 239.07237) rotate(90)" gradientUnits="userSpaceOnUse"><stop offset="0" stop-color="#2259a5"/><stop offset="1" stop-color="#0c4583"/></linearGradient><linearGradient id="b" x1="124.92665" y1="229.99978" x2="240.14617" y2="345.21931" gradientUnits="userSpaceOnUse"><stop offset="0" stop-color="#003c66"/><stop offset="1" stop-color="#0e204b"/></linearGradient><linearGradient id="c" x1="-8.89647" y1="217.25791" x2="286.57409" y2="217.25791" gradientTransform="translate(283.34316 22.68077) rotate(45)" gradientUnits="userSpaceOnUse"><stop offset="0" stop-color="#2988c9"/><stop offset="1" stop-color="#2e5faa"/></linearGradient><linearGradient id="d" x1="220.84796" y1="214.26984" x2="339.55602" y2="332.9779" gradientUnits="userSpaceOnUse"><stop offset="0" stop-color="#245a9f"/><stop offset="1" stop-color="#204681"/></linearGradient><linearGradient id="e" x1="213.77142" y1="145.96243" x2="437.56907" y2="369.76008" gradientUnits="userSpaceOnUse"><stop offset="0" stop-color="#83d0f5"/><stop offset="1" stop-color="#0087c3"/></linearGradient></defs><circle class="a" cx="256" cy="256" r="256"/><path class="b" d="M241.122,317.77767c0-81.60947-72.58715-147.31271-111.70258-176.794-10.06009-7.58228-24.29938-.27019-24.29938,12.47612,0,0,10.65234,69.24681,10.65232,144.77368,0,53.11724-5.26885,90.08489-8.39549,107.346a10.39228,10.39228,0,0,0,9.15064,12.22682C137.04445,419.8836,178.9886,424,189.19506,424,224.63068,424,241.122,350.389,241.122,317.77767Z"/><path class="c" d="M190.54546,394.82c2.69007-13.257,5.91816-42.68045,5.91816-107.55246,0-32.50111-.98276-61.3035-2.32133-84.92748-7.253-8.72174-13.25955-15.45727-19.61493-21.941,0,0,9.81053,28.56095,12.80138,114.64056C190.38318,382.94917,190.54546,394.82,190.54546,394.82Z"/><path class="d" d="M339.35477,299.035c-.47849-90.84-82.5233-164.41142-126.70047-197.46257a16.99251,16.99251,0,0,0-27.26331,13.741s11.07258,60.74527,11.07255,171.95426c0,64.87192-3.228,94.29533-5.918,107.55235a10.3511,10.3511,0,0,0,8.61123,12.40658c22.83178,3.17941,70.81215,9.67057,82.40378,9.73257C321.42513,417.17245,339.546,335.33486,339.35477,299.035Z"/><path class="e" d="M284.38461,388.1493c5.49438-19.67116,15.45867-65.3343,15.45867-137.79246,0-24.48082-1.14144-46.76965-2.85972-66.50032-5.78073-7.59654-13.17717-16.24744-20.90656-24.69964-1.18111-1.29156,11.72689,22.69657,13.76272,109.628C291.95694,359.19181,284.38461,388.1493,284.38461,388.1493Z"/><path class="f" d="M446.88,282.96805c0-97.53522-88.614-176.06018-136.36585-211.29459a18.60159,18.60159,0,0,0-29.66454,14.91078s18.99365,63.734,18.99363,163.77268c0,72.458-9.96431,118.12123-15.45862,137.79234A9.96723,9.96723,0,0,0,292.725,400.792c24.18541,2.88665,77.95239,9.12721,90.763,9.12721C426.74753,409.91924,446.88,321.94335,446.88,282.96805Z"/></svg>
